<mxfile host="app.diagrams.net" agent="Mozilla/5.0 (Windows NT 10.0; Win64; x64) AppleWebKit/537.36 (KHTML, like Gecko) Chrome/130.0.0.0 Safari/537.36 Edg/130.0.0.0" version="25.0.3">
  <diagram name="Page-1" id="VwTgtijGJHBqPTY5M88K">
    <mxGraphModel dx="1314" dy="2016" grid="1" gridSize="10" guides="1" tooltips="1" connect="1" arrows="1" fold="1" page="1" pageScale="1" pageWidth="827" pageHeight="1169" math="0" shadow="0">
      <root>
        <mxCell id="0" />
        <mxCell id="1" parent="0" />
        <mxCell id="JNARTLBHI2mvsGptAJAj-1" value="" style="group" vertex="1" connectable="0" parent="1">
          <mxGeometry x="108" y="-830" width="612" height="178" as="geometry" />
        </mxCell>
        <mxCell id="smv717ynU8HUrMEVa_RD-1" value="&lt;font style=&quot;font-size: 8px;&quot;&gt;输出&amp;nbsp;&lt;i&gt;n&lt;/i&gt;&lt;sub&gt;M&lt;/sub&gt;&amp;nbsp;和&amp;nbsp;&lt;i&gt;n&lt;/i&gt;&lt;sub&gt;T&lt;/sub&gt;&lt;/font&gt;" style="rounded=1;whiteSpace=wrap;html=1;fontSize=12;glass=0;strokeWidth=1;shadow=0;arcSize=50;movable=1;resizable=1;rotatable=1;deletable=1;editable=1;locked=0;connectable=1;" parent="JNARTLBHI2mvsGptAJAj-1" vertex="1">
          <mxGeometry x="532" y="141" width="80" height="30" as="geometry" />
        </mxCell>
        <mxCell id="smv717ynU8HUrMEVa_RD-2" style="edgeStyle=orthogonalEdgeStyle;rounded=0;orthogonalLoop=1;jettySize=auto;html=1;exitX=1;exitY=0.5;exitDx=0;exitDy=0;entryX=0;entryY=0.5;entryDx=0;entryDy=0;" parent="JNARTLBHI2mvsGptAJAj-1" source="smv717ynU8HUrMEVa_RD-3" target="smv717ynU8HUrMEVa_RD-5" edge="1">
          <mxGeometry relative="1" as="geometry" />
        </mxCell>
        <mxCell id="smv717ynU8HUrMEVa_RD-3" value="&lt;font style=&quot;font-size: 8px;&quot;&gt;初始&amp;nbsp;&lt;i&gt;V&lt;/i&gt;&lt;sub&gt;M&lt;/sub&gt;&amp;nbsp;和&amp;nbsp;&lt;i&gt;V&lt;/i&gt;&lt;sub&gt;T&lt;/sub&gt;&lt;/font&gt;" style="rounded=1;whiteSpace=wrap;html=1;fontSize=12;glass=0;strokeWidth=1;shadow=0;arcSize=50;movable=1;resizable=1;rotatable=1;deletable=1;editable=1;locked=0;connectable=1;" parent="JNARTLBHI2mvsGptAJAj-1" vertex="1">
          <mxGeometry y="72" width="69" height="30" as="geometry" />
        </mxCell>
        <mxCell id="smv717ynU8HUrMEVa_RD-4" style="edgeStyle=orthogonalEdgeStyle;rounded=0;orthogonalLoop=1;jettySize=auto;html=1;exitX=1;exitY=0.5;exitDx=0;exitDy=0;entryX=0;entryY=0.5;entryDx=0;entryDy=0;strokeWidth=1;movable=1;resizable=1;rotatable=1;deletable=1;editable=1;locked=0;connectable=1;" parent="JNARTLBHI2mvsGptAJAj-1" source="smv717ynU8HUrMEVa_RD-5" target="smv717ynU8HUrMEVa_RD-10" edge="1">
          <mxGeometry relative="1" as="geometry" />
        </mxCell>
        <mxCell id="smv717ynU8HUrMEVa_RD-5" value="&lt;font style=&quot;font-size: 8px;&quot;&gt;&lt;i&gt;&amp;nbsp;n&lt;/i&gt;&lt;sub&gt;M&lt;/sub&gt;,&amp;nbsp;&lt;/font&gt;&lt;i style=&quot;font-size: 8px;&quot;&gt;n&lt;/i&gt;&lt;font style=&quot;font-size: 8px;&quot;&gt;&lt;sub&gt;T&lt;/sub&gt;&lt;/font&gt;&lt;font style=&quot;font-size: 8px;&quot;&gt;,&lt;/font&gt;&lt;font style=&quot;font-size: 8px;&quot;&gt;&amp;nbsp;&lt;/font&gt;&lt;i style=&quot;background-color: initial; font-size: 8px;&quot;&gt;V&lt;/i&gt;&lt;span style=&quot;background-color: initial;&quot;&gt;&lt;font style=&quot;font-size: 8px;&quot;&gt;&lt;sub&gt;M&lt;/sub&gt;&lt;/font&gt;&lt;/span&gt;&lt;span style=&quot;background-color: initial; font-size: 8px;&quot;&gt;&amp;nbsp;&lt;/span&gt;" style="rounded=0;whiteSpace=wrap;html=1;strokeWidth=1;movable=1;resizable=1;rotatable=1;deletable=1;editable=1;locked=0;connectable=1;align=center;" parent="JNARTLBHI2mvsGptAJAj-1" vertex="1">
          <mxGeometry x="139" y="72" width="60" height="30" as="geometry" />
        </mxCell>
        <mxCell id="smv717ynU8HUrMEVa_RD-6" style="edgeStyle=orthogonalEdgeStyle;rounded=0;orthogonalLoop=1;jettySize=auto;html=1;exitX=1;exitY=0.5;exitDx=0;exitDy=0;entryX=0.5;entryY=1;entryDx=0;entryDy=0;strokeWidth=1;movable=1;resizable=1;rotatable=1;deletable=1;editable=1;locked=0;connectable=1;" parent="JNARTLBHI2mvsGptAJAj-1" source="smv717ynU8HUrMEVa_RD-7" target="smv717ynU8HUrMEVa_RD-10" edge="1">
          <mxGeometry relative="1" as="geometry">
            <mxPoint x="310" y="102" as="targetPoint" />
          </mxGeometry>
        </mxCell>
        <mxCell id="smv717ynU8HUrMEVa_RD-7" value="&lt;font style=&quot;font-size: 8px;&quot;&gt;初始 Δ&lt;/font&gt;&lt;font style=&quot;&quot;&gt;&lt;span style=&quot;font-size: 6.66667px;&quot;&gt;&lt;sub&gt;1&lt;/sub&gt;&lt;/span&gt;&lt;span style=&quot;font-size: 8px;&quot;&gt;&amp;nbsp;和&amp;nbsp;&lt;/span&gt;&lt;/font&gt;&lt;font style=&quot;font-size: 8px;&quot;&gt;Δ&lt;/font&gt;&lt;font style=&quot;font-size: 5.55556px;&quot;&gt;&lt;sub&gt;2&lt;/sub&gt;&lt;/font&gt;" style="rounded=1;whiteSpace=wrap;html=1;fontSize=12;glass=0;strokeWidth=1;shadow=0;arcSize=50;movable=1;resizable=1;rotatable=1;deletable=1;editable=1;locked=0;connectable=1;" parent="JNARTLBHI2mvsGptAJAj-1" vertex="1">
          <mxGeometry x="128" y="141" width="70" height="30" as="geometry" />
        </mxCell>
        <mxCell id="smv717ynU8HUrMEVa_RD-8" value="&lt;span style=&quot;font-size: 8px;&quot;&gt;ABA三层石墨烯的紧束缚模型&lt;/span&gt;" style="text;html=1;align=center;verticalAlign=middle;resizable=1;points=[];autosize=1;strokeColor=none;fillColor=none;movable=1;rotatable=1;deletable=1;editable=1;locked=0;connectable=1;" parent="JNARTLBHI2mvsGptAJAj-1" vertex="1">
          <mxGeometry x="197" y="148" width="130" height="30" as="geometry" />
        </mxCell>
        <mxCell id="smv717ynU8HUrMEVa_RD-9" style="edgeStyle=orthogonalEdgeStyle;rounded=0;orthogonalLoop=1;jettySize=auto;html=1;exitX=1;exitY=0.5;exitDx=0;exitDy=0;" parent="JNARTLBHI2mvsGptAJAj-1" source="smv717ynU8HUrMEVa_RD-10" target="smv717ynU8HUrMEVa_RD-13" edge="1">
          <mxGeometry relative="1" as="geometry" />
        </mxCell>
        <mxCell id="smv717ynU8HUrMEVa_RD-10" value="&lt;font style=&quot;&quot;&gt;&lt;i style=&quot;&quot;&gt;&lt;span style=&quot;font-size: 8px;&quot;&gt;n&lt;/span&gt;&lt;span style=&quot;font-size: 6.66667px;&quot;&gt;&lt;sub&gt;i&lt;/sub&gt;&lt;/span&gt;&lt;/i&gt;&lt;span style=&quot;font-size: 8px;&quot;&gt;&amp;nbsp;,&lt;/span&gt;&lt;/font&gt;&lt;span style=&quot;font-size: 8px; background-color: initial;&quot;&gt;&amp;nbsp;&lt;/span&gt;&lt;span style=&quot;font-size: 8px;&quot;&gt;Δ&lt;sub&gt;&lt;i&gt;i&lt;/i&gt;&lt;/sub&gt;&amp;nbsp;&lt;/span&gt;&lt;i style=&quot;background-color: initial; font-size: 8px;&quot;&gt;, V&lt;/i&gt;&lt;span style=&quot;background-color: initial;&quot;&gt;&lt;font style=&quot;font-size: 8px;&quot;&gt;&lt;sub&gt;T&lt;/sub&gt;&lt;/font&gt;&lt;/span&gt;" style="rounded=0;whiteSpace=wrap;html=1;strokeWidth=1;movable=1;resizable=1;rotatable=1;deletable=1;editable=1;locked=0;connectable=1;" parent="JNARTLBHI2mvsGptAJAj-1" vertex="1">
          <mxGeometry x="269" y="72" width="60" height="30" as="geometry" />
        </mxCell>
        <mxCell id="smv717ynU8HUrMEVa_RD-11" style="edgeStyle=orthogonalEdgeStyle;rounded=0;orthogonalLoop=1;jettySize=auto;html=1;exitX=0.5;exitY=1;exitDx=0;exitDy=0;entryX=0.5;entryY=0;entryDx=0;entryDy=0;" parent="JNARTLBHI2mvsGptAJAj-1" source="smv717ynU8HUrMEVa_RD-13" target="smv717ynU8HUrMEVa_RD-15" edge="1">
          <mxGeometry relative="1" as="geometry" />
        </mxCell>
        <mxCell id="smv717ynU8HUrMEVa_RD-12" style="edgeStyle=orthogonalEdgeStyle;rounded=0;orthogonalLoop=1;jettySize=auto;html=1;exitX=1;exitY=0.5;exitDx=0;exitDy=0;entryX=0;entryY=0.5;entryDx=0;entryDy=0;" parent="JNARTLBHI2mvsGptAJAj-1" source="smv717ynU8HUrMEVa_RD-13" target="smv717ynU8HUrMEVa_RD-20" edge="1">
          <mxGeometry relative="1" as="geometry" />
        </mxCell>
        <mxCell id="smv717ynU8HUrMEVa_RD-13" value="&lt;font style=&quot;font-size: 8px;&quot;&gt;Δ&lt;/font&gt;&lt;span style=&quot;font-size: 6.66667px;&quot;&gt;&lt;sub&gt;1&lt;/sub&gt;&lt;/span&gt;&lt;span style=&quot;font-size: 8px;&quot;&gt;&amp;nbsp;与&amp;nbsp;&lt;/span&gt;&lt;font style=&quot;font-size: 8px;&quot;&gt;Δ&lt;/font&gt;&lt;font style=&quot;font-size: 8px;&quot;&gt;&lt;sub&gt;2&lt;/sub&gt;&lt;/font&gt;&lt;div&gt;&lt;font style=&quot;font-size: 8px;&quot;&gt;自洽?&lt;/font&gt;&lt;/div&gt;" style="rhombus;whiteSpace=wrap;html=1;strokeWidth=1;movable=1;resizable=1;rotatable=1;deletable=1;editable=1;locked=0;connectable=1;" parent="JNARTLBHI2mvsGptAJAj-1" vertex="1">
          <mxGeometry x="386" y="55.75" width="62.5" height="62.5" as="geometry" />
        </mxCell>
        <mxCell id="smv717ynU8HUrMEVa_RD-14" value="&lt;font style=&quot;font-size: 8px;&quot;&gt;否&lt;/font&gt;" style="text;html=1;align=center;verticalAlign=middle;resizable=1;points=[];autosize=1;strokeColor=none;fillColor=none;movable=1;rotatable=1;deletable=1;editable=1;locked=0;connectable=1;" parent="JNARTLBHI2mvsGptAJAj-1" vertex="1">
          <mxGeometry x="394" y="110" width="30" height="30" as="geometry" />
        </mxCell>
        <mxCell id="smv717ynU8HUrMEVa_RD-15" value="&lt;font style=&quot;font-size: 8px;&quot;&gt;将初始的 Δ&lt;/font&gt;&lt;span style=&quot;font-size: 6.66667px;&quot;&gt;&lt;sub&gt;1&lt;/sub&gt;&lt;/span&gt;&lt;span style=&quot;font-size: 8px;&quot;&gt;&amp;nbsp;和&amp;nbsp;&lt;/span&gt;&lt;font style=&quot;font-size: 8px;&quot;&gt;Δ&lt;/font&gt;&lt;font style=&quot;font-size: 5.55556px;&quot;&gt;&lt;sub&gt;2&lt;/sub&gt;&lt;/font&gt;&lt;span style=&quot;font-size: 8px;&quot;&gt;&amp;nbsp;&lt;/span&gt;&lt;div&gt;&lt;span style=&quot;font-size: 8px;&quot;&gt;替换为当前值&lt;/span&gt;&lt;/div&gt;" style="rounded=0;whiteSpace=wrap;html=1;strokeWidth=1;movable=1;resizable=1;rotatable=1;deletable=1;editable=1;locked=0;connectable=1;" parent="JNARTLBHI2mvsGptAJAj-1" vertex="1">
          <mxGeometry x="362.25" y="141" width="110" height="30" as="geometry" />
        </mxCell>
        <mxCell id="smv717ynU8HUrMEVa_RD-16" value="" style="endArrow=none;html=1;rounded=0;entryX=0;entryY=0.5;entryDx=0;entryDy=0;strokeWidth=1;movable=1;resizable=1;rotatable=1;deletable=1;editable=1;locked=0;connectable=1;exitX=1;exitY=0.5;exitDx=0;exitDy=0;" parent="JNARTLBHI2mvsGptAJAj-1" source="smv717ynU8HUrMEVa_RD-7" target="smv717ynU8HUrMEVa_RD-15" edge="1">
          <mxGeometry width="50" height="50" relative="1" as="geometry">
            <mxPoint x="320" y="156" as="sourcePoint" />
            <mxPoint x="330" y="142" as="targetPoint" />
          </mxGeometry>
        </mxCell>
        <mxCell id="smv717ynU8HUrMEVa_RD-17" value="&lt;font style=&quot;font-size: 8px;&quot;&gt;是&lt;/font&gt;" style="text;html=1;align=center;verticalAlign=middle;resizable=1;points=[];autosize=1;strokeColor=none;fillColor=none;movable=1;rotatable=1;deletable=1;editable=1;locked=0;connectable=1;" parent="JNARTLBHI2mvsGptAJAj-1" vertex="1">
          <mxGeometry x="449" y="64" width="30" height="30" as="geometry" />
        </mxCell>
        <mxCell id="smv717ynU8HUrMEVa_RD-18" style="edgeStyle=orthogonalEdgeStyle;rounded=0;orthogonalLoop=1;jettySize=auto;html=1;exitX=0.5;exitY=0;exitDx=0;exitDy=0;entryX=0.5;entryY=1;entryDx=0;entryDy=0;strokeWidth=1;movable=1;resizable=1;rotatable=1;deletable=1;editable=1;locked=0;connectable=1;" parent="JNARTLBHI2mvsGptAJAj-1" source="smv717ynU8HUrMEVa_RD-20" target="smv717ynU8HUrMEVa_RD-24" edge="1">
          <mxGeometry relative="1" as="geometry" />
        </mxCell>
        <mxCell id="smv717ynU8HUrMEVa_RD-19" style="edgeStyle=orthogonalEdgeStyle;rounded=0;orthogonalLoop=1;jettySize=auto;html=1;exitX=1;exitY=0.5;exitDx=0;exitDy=0;entryX=0.5;entryY=0;entryDx=0;entryDy=0;" parent="JNARTLBHI2mvsGptAJAj-1" source="smv717ynU8HUrMEVa_RD-20" target="smv717ynU8HUrMEVa_RD-1" edge="1">
          <mxGeometry relative="1" as="geometry" />
        </mxCell>
        <mxCell id="smv717ynU8HUrMEVa_RD-20" value="&lt;i style=&quot;background-color: initial; font-size: 8px;&quot;&gt;V&lt;/i&gt;&lt;span style=&quot;background-color: initial;&quot;&gt;&lt;font style=&quot;font-size: 8px;&quot;&gt;&lt;sub&gt;M&lt;/sub&gt;&lt;/font&gt;&lt;/span&gt;&lt;span style=&quot;font-size: 8px;&quot;&gt;&amp;nbsp;与&amp;nbsp;&lt;/span&gt;&lt;i style=&quot;background-color: initial; font-size: 8px;&quot;&gt;V&lt;/i&gt;&lt;span style=&quot;background-color: initial;&quot;&gt;&lt;font style=&quot;font-size: 8px;&quot;&gt;&lt;sub&gt;T&lt;/sub&gt;&lt;/font&gt;&lt;/span&gt;&lt;div&gt;&lt;font style=&quot;font-size: 8px;&quot;&gt;自洽?&lt;/font&gt;&lt;/div&gt;" style="rhombus;whiteSpace=wrap;html=1;strokeWidth=1;movable=1;resizable=1;rotatable=1;deletable=1;editable=1;locked=0;connectable=1;" parent="JNARTLBHI2mvsGptAJAj-1" vertex="1">
          <mxGeometry x="486" y="55.75" width="62.5" height="62.5" as="geometry" />
        </mxCell>
        <mxCell id="smv717ynU8HUrMEVa_RD-21" value="" style="endArrow=none;html=1;rounded=0;entryX=0;entryY=0.5;entryDx=0;entryDy=0;strokeWidth=1;movable=1;resizable=1;rotatable=1;deletable=1;editable=1;locked=0;connectable=1;" parent="JNARTLBHI2mvsGptAJAj-1" target="smv717ynU8HUrMEVa_RD-24" edge="1">
          <mxGeometry width="50" height="50" relative="1" as="geometry">
            <mxPoint x="109" y="87" as="sourcePoint" />
            <mxPoint x="340" y="52" as="targetPoint" />
            <Array as="points">
              <mxPoint x="109" y="17" />
            </Array>
          </mxGeometry>
        </mxCell>
        <mxCell id="smv717ynU8HUrMEVa_RD-22" value="&lt;font style=&quot;font-size: 8px;&quot;&gt;否&lt;/font&gt;" style="text;html=1;align=center;verticalAlign=middle;resizable=1;points=[];autosize=1;strokeColor=none;fillColor=none;movable=1;rotatable=1;deletable=1;editable=1;locked=0;connectable=1;" parent="JNARTLBHI2mvsGptAJAj-1" vertex="1">
          <mxGeometry x="492" y="30" width="30" height="30" as="geometry" />
        </mxCell>
        <mxCell id="smv717ynU8HUrMEVa_RD-23" value="&lt;font style=&quot;font-size: 8px;&quot;&gt;是&lt;/font&gt;" style="text;html=1;align=center;verticalAlign=middle;resizable=1;points=[];autosize=1;strokeColor=none;fillColor=none;movable=1;rotatable=1;deletable=1;editable=1;locked=0;connectable=1;" parent="JNARTLBHI2mvsGptAJAj-1" vertex="1">
          <mxGeometry x="543.5" y="63.75" width="30" height="30" as="geometry" />
        </mxCell>
        <mxCell id="smv717ynU8HUrMEVa_RD-24" value="&lt;font style=&quot;font-size: 8px;&quot;&gt;将初始的&amp;nbsp;&lt;/font&gt;&lt;i style=&quot;background-color: initial; font-size: 8px;&quot;&gt;V&lt;/i&gt;&lt;span style=&quot;background-color: initial;&quot;&gt;&lt;font style=&quot;font-size: 8px;&quot;&gt;&lt;sub&gt;M&lt;/sub&gt;&lt;/font&gt;&lt;/span&gt;&lt;span style=&quot;font-size: 8px;&quot;&gt;&amp;nbsp;和&amp;nbsp;&lt;/span&gt;&lt;i style=&quot;background-color: initial; font-size: 8px;&quot;&gt;V&lt;/i&gt;&lt;span style=&quot;background-color: initial;&quot;&gt;&lt;font style=&quot;font-size: 8px;&quot;&gt;&lt;sub&gt;T&lt;/sub&gt;&lt;/font&gt;&lt;/span&gt;&lt;div&gt;&lt;span style=&quot;font-size: 8px;&quot;&gt;替换为当前值&lt;/span&gt;&lt;/div&gt;" style="rounded=0;whiteSpace=wrap;html=1;strokeWidth=1;movable=1;resizable=1;rotatable=1;deletable=1;editable=1;locked=0;connectable=1;" parent="JNARTLBHI2mvsGptAJAj-1" vertex="1">
          <mxGeometry x="462.25" width="110" height="30" as="geometry" />
        </mxCell>
        <mxCell id="smv717ynU8HUrMEVa_RD-25" value="Eq. (3-6~3-8)" style="text;align=center;verticalAlign=middle;resizable=0;points=[];autosize=1;strokeColor=none;fillColor=none;fontSize=8;" parent="JNARTLBHI2mvsGptAJAj-1" vertex="1">
          <mxGeometry x="69" y="87" width="70" height="20" as="geometry" />
        </mxCell>
        <mxCell id="smv717ynU8HUrMEVa_RD-26" value="Eq. (3-9~3-11)" style="text;align=center;verticalAlign=middle;resizable=0;points=[];autosize=1;strokeColor=none;fillColor=none;fontSize=8;" parent="JNARTLBHI2mvsGptAJAj-1" vertex="1">
          <mxGeometry x="199" y="87" width="70" height="20" as="geometry" />
        </mxCell>
      </root>
    </mxGraphModel>
  </diagram>
</mxfile>
